# xmcd CD database file
#
# Track frame offsets:
#	150
#	17035
#	37007
#	57817
#	71797
#	90292
#	109530
#	128550
#	148085
#	163670
#	184642
#	202392
#
# Disc length: 2932 seconds
#
# Revision: 0
# Processed by: cddbd v1.5.1PL0 Copyright (c) Steve Scherf et al.
# Submitted via: CDex 1.51
#
DISCID=a60b720c
DTITLE=Johnny Hooper - For The City
DYEAR=1900
DGENRE=Jazz
TTITLE0=Pick Up The Pieces
TTITLE1=Baker Street
TTITLE2=Get Here
TTITLE3=Knock On Wood
TTITLE4=I'll Be There
TTITLE5=Move Closer
TTITLE6=Take Five
TTITLE7=Green Onions
TTITLE8=Living For The City
TTITLE9=Easy
TTITLE10=Saving All My Love For You
TTITLE11=I Still Haven't Found What I'm Looking For
EXTD=
EXTT0=
EXTT1=
EXTT2=
EXTT3=
EXTT4=
EXTT5=
EXTT6=
EXTT7=
EXTT8=
EXTT9=
EXTT10=
EXTT11=
PLAYORDER=
